HIERARCHY
ROOT hip
{
	OFFSET 0.000000 0.000000 0.000000
	CHANNELS 6 Xposition Yposition Zposition Zrotation Yrotation Xrotation 
	JOINT lhipjoint
	{
		OFFSET 0.000000 0.000000 0.000000
		CHANNELS 3 Zrotation Yrotation Xrotation
		JOINT lfemur
		{
			OFFSET 1.363060 -1.794630 0.839290
			CHANNELS 3 Zrotation Yrotation Xrotation
			JOINT ltibia
			{
				OFFSET 2.448110 -6.726130 0.000000
				CHANNELS 3 Zrotation Yrotation Xrotation
				JOINT lfoot
				{
					OFFSET 2.562200 -7.039590 0.000000
					CHANNELS 3 Zrotation Yrotation Xrotation
					JOINT ltoes
					{
						OFFSET 0.157640 -0.433110 2.322550
						CHANNELS 3 Zrotation Yrotation Xrotation
						End Site
						{
							OFFSET 0.000000 0.000000 0.000000
						}
					}
				}
			}
		}
	}
	JOINT rhipjoint
	{
		OFFSET 0.000000 0.000000 0.000000
		CHANNELS 3 Zrotation Yrotation Xrotation
		JOINT rfemur
		{
			OFFSET -1.305520 -1.794630 0.839290
			CHANNELS 3 Zrotation Yrotation Xrotation
			JOINT rtibia
			{
				OFFSET -2.542530 -6.985550 0.000000
				CHANNELS 3 Zrotation Yrotation Xrotation
				JOINT rfoot
				{
					OFFSET -2.568260 -7.056230 0.000000
					CHANNELS 3 Zrotation Yrotation Xrotation
					JOINT rtoes
					{
						OFFSET -0.164730 -0.452590 2.363150
						CHANNELS 3 Zrotation Yrotation Xrotation
						End Site
						{
							OFFSET 0.000000 0.000000 0.000000
						}
					}
				}
			}
		}
	}
	JOINT lowerback
	{
		OFFSET 0.000000 0.000000 0.000000
		CHANNELS 3 Zrotation Yrotation Xrotation
		JOINT upperback
		{
			OFFSET 0.028270 2.035590 -0.193380
			CHANNELS 3 Zrotation Yrotation Xrotation
			JOINT thorax
			{
				OFFSET 0.056720 2.048850 -0.042750
				CHANNELS 3 Zrotation Yrotation Xrotation
				JOINT lowerneck
				{
					OFFSET 0.000000 0.000000 0.000000
					CHANNELS 3 Zrotation Yrotation Xrotation
					JOINT upperneck
					{
						OFFSET -0.054170 1.746240 0.172020
						CHANNELS 3 Zrotation Yrotation Xrotation
						JOINT head
						{
							OFFSET 0.104070 1.761360 -0.123970
							CHANNELS 3 Zrotation Yrotation Xrotation
							End Site
							{
								OFFSET 0.000000 0.000000 0.000000
							}
						}
					}
				}
				JOINT lclavicle
				{
					OFFSET 0.000000 0.000000 0.000000
					CHANNELS 3 Zrotation Yrotation Xrotation
					JOINT lhumerus
					{
						OFFSET 3.362410 1.200890 -0.311210
						CHANNELS 3 Zrotation Yrotation Xrotation
						JOINT lradius
						{
							OFFSET 4.983000 -0.000000 -0.000000
							CHANNELS 3 Zrotation Yrotation Xrotation
							JOINT lwrist
							{
								OFFSET 3.483560 -0.000000 -0.000000
								CHANNELS 3 Zrotation Yrotation Xrotation
								JOINT lhand
								{
									OFFSET 0.000000 0.000000 0.000000
									CHANNELS 3 Zrotation Yrotation Xrotation
									JOINT lfingers
									{
										OFFSET 0.715260 -0.000000 -0.000000
										CHANNELS 3 Zrotation Yrotation Xrotation
										End Site
										{
											OFFSET 0.000000 0.000000 0.000000
										}
									}
								}
								JOINT lthumb
								{
									OFFSET 0.000000 0.000000 0.000000
									CHANNELS 3 Zrotation Yrotation Xrotation
									End Site
									{
										OFFSET 0.000000 0.000000 0.000000
									}
								}
							}
						}
					}
				}
				JOINT rclavicle
				{
					OFFSET 0.000000 0.000000 0.000000
					CHANNELS 3 Zrotation Yrotation Xrotation
					JOINT rhumerus
					{
						OFFSET -3.136600 1.374050 -0.404650
						CHANNELS 3 Zrotation Yrotation Xrotation
						JOINT rradius
						{
							OFFSET -5.241900 -0.000000 -0.000000
							CHANNELS 3 Zrotation Yrotation Xrotation
							JOINT rwrist
							{
								OFFSET -3.444170 -0.000000 -0.000000
								CHANNELS 3 Zrotation Yrotation Xrotation
								JOINT rhand
								{
									OFFSET 0.000000 0.000000 0.000000
									CHANNELS 3 Zrotation Yrotation Xrotation
									JOINT rfingers
									{
										OFFSET -0.622530 -0.000000 -0.000000
										CHANNELS 3 Zrotation Yrotation Xrotation
										End Site
										{
											OFFSET 0.000000 0.000000 0.000000
										}
									}
								}
								JOINT rthumb
								{
									OFFSET 0.000000 0.000000 0.000000
									CHANNELS 3 Zrotation Yrotation Xrotation
									End Site
									{
										OFFSET 0.000000 0.000000 0.000000
									}
								}
							}
						}
					}
				}
			}
		}
	}
}
MOTION
Frames: 8
Frame Time: 0.008333
-3.109261 30.190761 19.498907 -179.354165 -1.493739 173.529333 8.795100 2.039586 -1.359173 -25.242660 4.555251 -8.252606 7.055180 15.153092 48.081564 1.340578 6.789468 27.788395 0.304100 -3.545400 -9.801000 -12.643698 -3.496562 -3.340775 38.888927 2.510749 -1.979688 -5.375168 -12.537229 38.652896 0.070498 -12.083037 24.962155 -0.427800 4.197800 -11.633800 0.227922 0.490261 17.095010 -0.060759 -0.449529 -2.056537 -2.690260 0.379276 -3.278879 -4.898659 3.756121 3.030997 1.764743 9.586675 19.065858 0.638200 5.911600 3.897800 -7.261806 -3.749782 1.405176 -29.148803 2.045886 -13.822839 134.117266 -51.436762 -103.425908 0.280969 0.235976 -23.216801 27.447753 -16.095996 -8.156300 -7.125000 0.000000 0.000000 -0.443300 11.832500 0.343000 3.781545 6.350412 5.478373 40.991006 -1.611175 -10.303260 -112.129825 53.486248 -83.843246 1.401531 -1.792519 -9.518433 -27.172141 12.344981 -7.650000 7.125000 0.000000 0.000000 -0.524600 -13.663300 -0.385900 
-3.134337 30.078714 19.348449 -179.331023 -1.299826 173.312235 8.780559 2.037824 -1.375044 -25.122221 4.446011 -8.098055 6.864889 15.005618 47.451259 1.435978 6.598418 28.070791 0.334900 -3.719300 -10.288400 -12.643674 -3.504215 -3.338308 38.755300 2.548614 -2.192850 -5.370507 -12.506021 38.475973 0.285809 -12.689570 24.549511 -0.411500 4.117900 -11.408700 0.306230 0.511035 17.256162 -0.059234 -0.437177 -2.027920 -2.764827 0.384492 -3.136886 -4.824439 3.774176 2.950973 1.777749 9.622756 19.133616 0.609800 5.940800 3.943300 -7.207330 -3.690738 1.435855 -29.825920 2.320388 -13.632611 133.290057 -51.986942 -102.826007 0.229493 0.266488 -22.968809 27.468562 -15.710197 -8.013600 -7.125000 0.000000 0.000000 -0.373000 12.194100 0.285800 3.763505 6.311799 5.517800 41.444736 -2.016710 -10.219050 -110.056031 53.919279 -81.899164 1.374617 -1.860422 -8.724197 -26.687789 12.269006 -7.480700 7.125000 0.000000 0.000000 -0.195000 -13.765000 -0.143000 
-3.158817 29.959900 19.198787 -179.328280 -1.154448 173.109184 8.771184 2.036266 -1.387802 -25.027104 4.262470 -7.952748 6.670582 14.853665 46.816633 1.509555 6.375937 28.165372 0.389800 -4.009000 -11.101900 -12.646196 -3.510084 -3.336138 38.625817 2.615091 -2.374205 -5.360821 -12.462468 38.249032 0.525048 -13.398603 24.158137 -0.388200 4.000700 -11.078700 0.371650 0.495828 17.417929 -0.055904 -0.472322 -2.004399 -2.842837 0.365489 -3.042153 -4.740915 3.800170 2.939186 1.765432 9.677031 19.186422 0.552600 5.987800 3.959600 -7.152936 -3.636404 1.468548 -30.513944 2.592661 -13.450244 132.365896 -52.576151 -102.151523 0.175864 0.291421 -22.827907 27.335907 -15.252169 -7.781800 -7.125000 0.000000 0.000000 -0.395400 12.665600 0.299100 3.751914 6.286946 5.565430 41.807116 -2.416971 -10.037186 -107.709305 54.336311 -79.674183 1.340953 -1.928385 -7.981086 -26.245409 12.185639 -7.321500 7.125000 0.000000 0.000000 0.110900 -13.866400 0.081100 
-3.183097 29.830737 19.047235 -179.335229 -1.020622 172.911875 8.763371 2.034139 -1.399498 -24.937623 4.085750 -7.803796 6.480924 14.700696 46.195167 1.573117 6.144048 28.183906 0.451800 -4.312300 -11.957000 -12.650941 -3.513189 -3.341111 38.497062 2.690028 -2.485375 -5.333592 -12.392450 37.937830 0.763623 -14.089965 23.768957 -0.352200 3.812800 -10.550700 0.427758 0.493736 17.566880 -0.053908 -0.489028 -1.980976 -2.893257 0.355879 -2.962557 -4.725042 3.823211 2.986314 1.770426 9.717226 19.237679 0.529400 6.022300 3.936200 -7.108983 -3.586551 1.504447 -31.204493 2.817915 -13.205547 131.335301 -53.198346 -101.386772 0.125149 0.312552 -22.698437 26.977225 -14.751519 -7.454800 -7.125000 0.000000 0.000000 -0.567500 13.222200 0.422600 3.735912 6.257814 5.620390 42.091083 -2.824980 -9.832825 -105.059923 54.735066 -77.132053 1.300307 -1.999264 -7.307471 -25.844069 12.178807 -7.213300 7.125000 0.000000 0.000000 0.402000 -13.872200 0.293900 
-3.206681 29.693215 18.895683 -179.350667 -0.891090 172.728228 8.757090 2.031436 -1.410075 -24.863702 3.900939 -7.679787 6.304111 14.552832 45.592308 1.616581 5.989952 28.202411 0.477200 -4.430200 -12.290200 -12.658783 -3.512575 -3.353392 38.369926 2.793633 -2.532584 -5.286157 -12.292335 37.524121 0.999762 -14.776249 23.405413 -0.313800 3.600900 -9.956300 0.465526 0.487473 17.689617 -0.051774 -0.514772 -1.955345 -2.928199 0.340900 -2.868200 -4.733624 3.866608 3.048199 1.782552 9.756160 19.255295 0.514200 6.051100 3.866700 -7.065377 -3.531493 1.545334 -31.942930 2.993780 -12.971747 130.269853 -53.810451 -100.586440 0.075302 0.333081 -22.558384 26.434391 -14.183396 -7.044000 -7.125000 0.000000 0.000000 -0.861800 13.877200 0.630000 3.712475 6.220389 5.675771 42.384502 -3.186559 -9.625640 -102.342293 55.075774 -74.486558 1.254748 -2.073880 -6.802551 -25.358504 12.193158 -7.089600 7.125000 0.000000 0.000000 0.759400 -13.858900 0.555400 
-3.229966 29.541763 18.743036 -179.374449 -0.775448 172.536514 8.752323 2.027946 -1.416143 -24.788882 3.718407 -7.562245 6.138648 14.410315 45.026718 1.658776 5.827376 28.201004 0.498000 -4.524100 -12.556000 -12.668663 -3.508211 -3.374259 38.258510 2.901118 -2.478296 -5.215857 -12.158646 37.011717 1.226493 -15.392933 23.021549 -0.275500 3.376000 -9.327500 0.500566 0.474464 17.809751 -0.050175 -0.548574 -1.935251 -2.996307 0.321988 -2.777025 -4.656582 3.902571 3.034133 1.791738 9.809752 19.296644 0.474400 6.093700 3.872100 -7.012557 -3.485561 1.575842 -32.606229 3.170291 -12.721040 129.118837 -54.440585 -99.717845 0.028623 0.343342 -22.391930 25.780817 -13.470926 -6.540200 -7.125000 0.000000 0.000000 -1.224400 14.712300 0.873500 3.693336 6.196235 5.716537 42.742147 -3.530318 -9.499000 -99.776043 55.340578 -71.978012 1.207793 -2.144102 -6.422441 -24.643344 12.109161 -6.846900 7.125000 0.000000 0.000000 1.267400 -13.987700 0.923700 
-3.254047 29.375184 18.590787 -179.388117 -0.676529 172.354231 8.748677 2.023346 -1.417959 -24.719395 3.483578 -7.468654 5.992451 14.279386 44.504158 1.675863 5.746625 28.172541 0.516700 -4.607000 -12.790900 -12.683934 -3.501258 -3.398614 38.160861 3.034757 -2.367077 -5.125426 -11.996731 36.415623 1.438642 -15.921819 22.609035 -0.230300 3.088700 -8.525900 0.550476 0.463677 17.921775 -0.047207 -0.573978 -1.918533 -3.062121 0.308278 -2.670638 -4.569188 3.933514 2.926399 1.812008 9.854669 19.340313 0.445900 6.125500 3.928700 -6.952537 -3.450369 1.600438 -33.307488 3.283268 -12.412796 127.920954 -55.040314 -98.808658 -0.017429 0.354026 -22.021075 25.091033 -12.607954 -5.976700 -7.125000 0.000000 0.000000 -1.610400 15.707100 1.114800 3.675661 6.172997 5.743909 43.072190 -3.876687 -9.442068 -97.211848 55.557899 -69.464489 1.158729 -2.207268 -6.180847 -23.793027 11.986756 -6.545700 7.125000 0.000000 0.000000 1.869000 -14.179400 1.355000 
-3.278128 29.194874 18.438936 -179.419640 -0.598556 172.196835 8.749128 2.019118 -1.417055 -24.675724 3.228858 -7.424842 5.862130 14.160555 44.023663 1.675829 5.717063 28.115410 0.521600 -4.628600 -12.852200 -12.701207 -3.494164 -3.421881 38.058789 3.181118 -2.255440 -5.022177 -11.818603 35.777213 1.629447 -16.334090 22.151452 -0.195400 2.846600 -7.851900 0.592050 0.445307 18.006037 -0.045952 -0.611289 -1.904585 -3.156406 0.288946 -2.575157 -4.434363 3.962935 2.828045 1.815094 9.889769 19.354776 0.388900 6.157100 3.968800 -6.890117 -3.413999 1.627203 -34.005328 3.387658 -12.032196 126.659862 -55.629798 -97.837967 -0.059371 0.365113 -21.462630 24.384674 -11.702435 -5.411300 -7.125000 0.000000 0.000000 -2.019000 16.741200 1.352700 3.663684 6.156944 5.770503 43.370256 -4.228753 -9.383340 -94.684523 55.728218 -66.985376 1.113126 -2.260923 -6.065347 -22.969828 11.748205 -6.206300 7.125000 0.000000 0.000000 2.446200 -14.495300 1.757700 
